<svg width="17" height="16" viewBox="0 0 17 16" fill="none" xmlns="http://www.w3.org/2000/svg">
<mask id="mask0_327_1054" style="mask-type:luminance" maskUnits="userSpaceOnUse" x="1" y="3" width="6" height="10">
<path d="M1.00391 3.46667H6.2387V12.5333H1.00391V3.46667Z" fill="white"/>
</mask>
<g mask="url(#mask0_327_1054)">
<mask id="mask1_327_1054" style="mask-type:luminance" maskUnits="userSpaceOnUse" x="1" y="0" width="15" height="16">
<path d="M15.8086 6.60601H8.66753V9.56672H12.778C12.3948 11.4476 10.7924 12.5274 8.66753 12.5274C6.15945 12.5274 4.13903 10.5072 4.13903 7.99926C4.13903 5.49139 6.15945 3.47114 8.66753 3.47114C9.74741 3.47114 10.7228 3.8543 11.4891 4.48126L13.7185 2.25205C12.36 1.06776 10.6183 0.336304 8.66753 0.336304C4.4177 0.336304 1.00391 3.7498 1.00391 7.99926C1.00391 12.2488 4.4177 15.6623 8.66753 15.6623C12.4993 15.6623 15.9828 12.8757 15.9828 7.99926C15.9828 7.54647 15.9131 7.0588 15.8086 6.60601Z" fill="white"/>
</mask>
<g mask="url(#mask1_327_1054)">
<path d="M0.307251 12.5275V3.47119L6.22913 7.99932L0.307251 12.5275Z" fill="#FBBC05"/>
</g>
</g>
<mask id="mask2_327_1054" style="mask-type:luminance" maskUnits="userSpaceOnUse" x="1" y="0" width="15" height="8">
<path d="M1.00391 0.330688H15.9828V8.00002H1.00391V0.330688Z" fill="white"/>
</mask>
<g mask="url(#mask2_327_1054)">
<mask id="mask3_327_1054" style="mask-type:luminance" maskUnits="userSpaceOnUse" x="1" y="0" width="15" height="16">
<path d="M15.8086 6.60601H8.66753V9.56672H12.778C12.3948 11.4476 10.7924 12.5274 8.66753 12.5274C6.15945 12.5274 4.13903 10.5072 4.13903 7.99926C4.13903 5.49139 6.15945 3.47114 8.66753 3.47114C9.74741 3.47114 10.7228 3.8543 11.4891 4.48126L13.7185 2.25205C12.36 1.06776 10.6183 0.336304 8.66753 0.336304C4.4177 0.336304 1.00391 3.7498 1.00391 7.99926C1.00391 12.2488 4.4177 15.6623 8.66753 15.6623C12.4993 15.6623 15.9828 12.8757 15.9828 7.99926C15.9828 7.54647 15.9131 7.0588 15.8086 6.60601Z" fill="white"/>
</mask>
<g mask="url(#mask3_327_1054)">
<path d="M0.307251 3.47115L6.22913 7.99927L8.66754 5.87457L17.0278 4.51611V-0.360352H0.307251V3.47115Z" fill="#EA4335"/>
</g>
</g>
<mask id="mask4_327_1054" style="mask-type:luminance" maskUnits="userSpaceOnUse" x="1" y="0" width="15" height="16">
<path d="M1.00391 0.330688H15.9828V15.6622H1.00391V0.330688Z" fill="white"/>
</mask>
<g mask="url(#mask4_327_1054)">
<mask id="mask5_327_1054" style="mask-type:luminance" maskUnits="userSpaceOnUse" x="1" y="0" width="15" height="16">
<path d="M15.8086 6.60601H8.66753V9.56672H12.778C12.3948 11.4476 10.7924 12.5274 8.66753 12.5274C6.15945 12.5274 4.13903 10.5072 4.13903 7.99926C4.13903 5.49139 6.15945 3.47114 8.66753 3.47114C9.74741 3.47114 10.7228 3.8543 11.4891 4.48126L13.7185 2.25205C12.36 1.06776 10.6183 0.336304 8.66753 0.336304C4.4177 0.336304 1.00391 3.7498 1.00391 7.99926C1.00391 12.2488 4.4177 15.6623 8.66753 15.6623C12.4993 15.6623 15.9828 12.8757 15.9828 7.99926C15.9828 7.54647 15.9131 7.0588 15.8086 6.60601Z" fill="white"/>
</mask>
<g mask="url(#mask5_327_1054)">
<path d="M0.307251 12.5274L10.7576 4.51611L13.5095 4.86444L17.0278 -0.360352V16.3589H0.307251V12.5274Z" fill="#34A853"/>
</g>
</g>
<mask id="mask6_327_1054" style="mask-type:luminance" maskUnits="userSpaceOnUse" x="4" y="3" width="12" height="13">
<path d="M4.83057 3.46667H15.9827V15.6622H4.83057V3.46667Z" fill="white"/>
</mask>
<g mask="url(#mask6_327_1054)">
<mask id="mask7_327_1054" style="mask-type:luminance" maskUnits="userSpaceOnUse" x="1" y="0" width="15" height="16">
<path d="M15.8085 6.60601H8.66741V9.56672H12.7779C12.3947 11.4476 10.7923 12.5274 8.66741 12.5274C6.15933 12.5274 4.13891 10.5072 4.13891 7.99926C4.13891 5.49139 6.15933 3.47114 8.66741 3.47114C9.74728 3.47114 10.7227 3.8543 11.489 4.48126L13.7184 2.25205C12.3599 1.06776 10.6182 0.336304 8.66741 0.336304C4.41758 0.336304 1.00378 3.7498 1.00378 7.99926C1.00378 12.2488 4.41758 15.6623 8.66741 15.6623C12.4992 15.6623 15.9827 12.8757 15.9827 7.99926C15.9827 7.54647 15.913 7.0588 15.8085 6.60601Z" fill="white"/>
</mask>
<g mask="url(#mask7_327_1054)">
<path d="M17.0278 16.359L6.22907 7.99932L4.83569 6.9544L17.0278 3.47119V16.359Z" fill="#4285F4"/>
</g>
</g>
</svg>
