<svg width="48" height="48" viewBox="0 0 48 48" fill="none" xmlns="http://www.w3.org/2000/svg">
<path d="M48 23.8031C47.9473 20.5126 46.6923 17.372 44.4981 15.0658L44.3664 14.9439C42.4355 12.9752 39.9342 11.7565 37.2748 11.494C35.932 4.8004 30.4026 0.0192478 23.9956 0.000498214C19.7828 -0.037001 15.7981 2.04421 13.2353 5.61601C11.9978 7.35035 11.1377 9.35656 10.7252 11.494C8.06582 11.7659 5.56445 13.0034 3.64235 14.9908L3.50192 15.1314C1.31651 17.4189 0.0614372 20.5313 0 23.7938V24.2906C0.0789907 27.4499 1.27263 30.4593 3.34394 32.7186L3.51947 32.9155C5.45913 34.9873 8.02194 36.2716 10.7515 36.5529C12.3313 44.3808 19.5458 49.3589 26.8744 47.6714C32.0878 46.4714 36.1602 42.1215 37.2836 36.5529C40.0307 36.281 42.5935 34.9873 44.542 32.9061L44.6912 32.728C46.7625 30.4499 47.9473 27.4124 48 24.2438V23.9813C48 23.925 48 23.8688 48 23.8031ZM42.1547 30.2249C40.7153 31.7342 38.8108 32.6248 36.8009 32.7186C36.7307 31.6686 36.5551 30.6374 36.2655 29.6343L36.3971 29.4374C37.8014 29.4468 39.153 28.828 40.1097 27.7312C41.2068 26.6718 41.8738 25.2 41.9704 23.625C42.0581 22.2844 41.6018 20.9626 40.7329 19.9876C39.6182 18.9939 38.2403 18.3939 36.7921 18.2626C35.3088 18.1595 33.8519 18.7689 32.8338 19.922H32.7197C32.6144 20.0345 32.4652 20.1563 32.3686 20.2688L33.65 21.3282L27.91 23.3906L28.3225 16.9408L29.8146 18.1876C31.7806 14.7096 30.7361 10.1909 27.48 8.09096C24.2238 5.991 19.9934 7.1066 18.0274 10.5847C16.2106 13.8002 16.9479 17.9626 19.7477 20.2407C20.8448 21.0094 22.0208 21.6563 23.2496 22.1532C25.7861 23.2406 28.4191 23.6625 30.5167 25.6781C34.6155 29.5968 34.9578 36.3185 31.2979 40.6965C27.8486 44.8121 22.0296 45.4214 17.8958 42.1028C15.1838 39.7778 13.8409 36.0748 14.3939 32.3998C13.6917 32.6717 12.9457 32.803 12.1997 32.7842V33.0373V32.7186C9.9616 32.6905 7.80252 31.8092 6.12616 30.2249H6.05595C4.46736 28.5937 3.57213 26.3343 3.58969 23.9813C3.58969 21.6938 4.43225 19.5095 5.9243 17.8783V17.9533C7.3198 16.472 9.17169 15.5814 11.1377 15.4596C11.2079 16.4627 11.3747 17.4658 11.638 18.4314C10.3478 18.5157 9.13659 19.1345 8.25891 20.1563C7.2847 21.0938 6.70543 22.3969 6.63522 23.7938C6.58256 25.2375 7.0565 26.6531 7.95173 27.7406C8.90839 28.7905 10.1986 29.3999 11.559 29.4655C12.972 29.5218 14.35 28.9499 15.3681 27.9093H15.4383C15.5436 27.8156 15.6489 27.7031 15.7455 27.5999L14.3939 26.5875L20.0987 24.6L19.7213 31.0311L18.1591 29.7843C16.1053 33.2154 17.0532 37.7622 20.2567 39.9559C23.469 42.1215 27.7345 41.1184 29.7883 37.6872C31.7104 34.4717 31.017 30.2155 28.1821 27.8812C27.8662 27.6374 27.5326 27.4124 27.1903 27.2062C24.1975 25.5469 20.6429 25.05 17.8431 22.875C13.5601 19.1251 12.9281 12.3846 16.4301 7.80034C19.8091 3.38481 25.8387 2.57857 30.1393 5.9535C32.9654 8.21283 34.4838 11.8878 34.1503 15.6377C35.0016 15.3658 35.8881 15.2252 36.7833 15.2252C38.8722 15.2627 40.8645 16.1627 42.3566 17.7189H42.2425C43.7345 19.3501 44.5771 21.5438 44.5771 23.8219C44.6122 26.1656 43.7345 28.4249 42.1547 30.0655V30.2249Z" fill="#9C59B5"/>
</svg>
